<?xml version="1.0" encoding="UTF-8"?>
<svg version="1.1" xmlns="http://www.w3.org/2000/svg" width="755" height="170">
<path d="M0 0 C0.928125 0.350625 1.85625 0.70125 2.8125 1.0625 C7.07980997 4.84211741 9.51601942 9.99208333 10.41796875 15.59765625 C10.63318096 22.22824183 9.04409015 27.76173087 5.515625 33.3515625 C3.37255528 37.09641113 2.36179894 41.03503652 1.16015625 45.16015625 C-0.10623676 48.26004756 -1.56698073 49.75226075 -4 52 C-5.25436187 54.63222962 -5.25436187 54.63222962 -6 57 C-2.12845414 54.24916478 -0.66394936 52.36786706 1 48 C2.53404758 45.80776309 4.16607893 43.97146515 6 42 C6.66 42 7.32 42 8 42 C8.2475 41.443125 8.495 40.88625 8.75 40.3125 C10.85451404 36.41914902 13.75027814 31.94343175 17.9375 30.1875 C20.6924797 28.60129957 21.62117045 26.82660058 23 24 C23 23.01 23 22.02 23 21 C24.62102968 19.28891311 26.29503463 17.62746694 28 16 C30.93339602 12.84659104 30.93339602 12.84659104 32.375 8.9375 C33.41507458 5.71326882 36.20429633 4.72043303 39 3 C40.2684375 1.88625 40.2684375 1.88625 41.5625 0.75 C44 -1 44 -1 46.375 -1.6875 C50.72227971 -0.54892674 53.09596407 2.70663178 56 6 C56.57621094 6.64453125 57.15242187 7.2890625 57.74609375 7.953125 C62.46272021 13.3370919 63.11570387 15.82636013 63 23 C63.969375 22.175 64.93875 21.35 65.9375 20.5 C69 18 69 18 70 18 C70.296875 20.28125 70.296875 20.28125 70 23 C67.953125 24.84375 67.953125 24.84375 65.25 26.5 C61.38489867 28.99484648 58.72864202 31.24811723 56 35 C55.34 35 54.68 35 54 35 C54.495 36.98 54.495 36.98 55 39 C53.02 38.505 53.02 38.505 51 38 C50.73574219 38.59425781 50.47148438 39.18851563 50.19921875 39.80078125 C48.95581716 42.08102587 47.70815724 43.43065519 45.8125 45.1875 C41.74543334 49.12747083 38.40573411 53.48993132 35 58 C33.67082708 59.66998649 32.33985898 61.33857487 31 63 C32.36125 63.185625 32.36125 63.185625 33.75 63.375 C37 64 37 64 38.875 65 C41.0980284 66.04613101 42.63598012 66.22092537 45.0625 66.4375 C49.22629618 67.03232803 49.37139611 67.25191412 52 70 C55.12549017 70.25048636 55.12549017 70.25048636 58 70 C59.17773343 73.53320029 58.750497 74.82299105 57.8125 78.375 C57.38904297 79.98375 57.38904297 79.98375 56.95703125 81.625 C56.02942995 84.89621439 55.02860633 88.13429434 54 91.375 C50.98669998 101.02679624 48.80910788 110.67651646 48.30859375 120.79296875 C48 123 48 123 46 126 C45.83300768 129.12521833 45.83300768 129.12521833 46 132 C45.34 132 44.68 132 44 132 C44.66 132.99 45.32 133.98 46 135 C46.99 135 47.98 135 49 135 C50.06775224 136.96466413 51.06553465 138.96855359 52 141 C51.67 141.66 51.34 142.32 51 143 C50.34 143 49.68 143 49 143 C48.67 144.32 48.34 145.64 48 147 C47.01 146.67 46.02 146.34 45 146 C44.33333333 144 43.66666667 142 43 140 C42.01 139.67 41.02 139.34 40 139 C38.3125 137.4375 38.3125 137.4375 37 136 C36.731875 137.134375 36.46375 138.26875 36.1875 139.4375 C35.795625 140.613125 35.40375 141.78875 35 143 C30.64924678 144.45025107 26.92146116 143.65734197 22.625 142.1875 C20.51724545 140.64721783 20.47038711 139.50873126 20 137 C19.34 136.34 18.68 135.68 18 135 C17.62109375 133.125 17.62109375 133.125 17.4375 131 C17.22315216 128.62030153 17.07661332 127.15322664 16 125 C16.14308594 124.43796875 16.28617188 123.8759375 16.43359375 123.296875 C17.18663512 120.24316241 17.09390661 117.3906605 17.0625 114.25 C17.05347656 113.07953125 17.04445313 111.9090625 17.03515625 110.703125 C17.02355469 109.81109375 17.01195312 108.9190625 17 108 C15.68 108 14.36 108 13 108 C13 107.01 13 106.02 13 105 C13.99 105 14.98 105 16 105 C16.33 101.04 16.66 97.08 17 93 C16.278125 93.721875 15.55625 94.44375 14.8125 95.1875 C12.96872057 97.03127943 11.11484911 98.86503383 9.25 100.6875 C6.98059858 102.78613313 6.98059858 102.78613313 6 105 C8.97 105.495 8.97 105.495 12 106 C11 109 11 109 8.5859375 110.28125 C1.09364852 113.12503852 -6.10300839 115.02648552 -13.98046875 116.421875 C-16.90772834 116.8409301 -16.90772834 116.8409301 -19 118 C-19 122.62 -19 127.24 -19 132 C-19.99 132 -20.98 132 -22 132 C-22.66220272 126.75331694 -23.22259162 122.19601438 -22 117 C-22.36856864 114.76832815 -22.36856864 114.76832815 -23 113 C-23.66 113 -24.32 113 -25 113 C-25.12117187 113.67546875 -25.24234375 114.3509375 -25.3671875 115.046875 C-25.53476562 115.93890625 -25.70234375 116.8309375 -25.875 117.75 C-26.03742187 118.63171875 -26.19984375 119.5134375 -26.3671875 120.421875 C-26.97480082 122.89733667 -27.67822299 124.82641115 -29 127 C-29.66 127.33 -30.32 127.66 -31 128 C-31.72693904 129.97888961 -32.39816251 131.97954558 -33 134 C-33.66 134 -34.32 134 -35 134 C-35 135.32 -35 136.64 -35 138 C-38.06429776 139.53214888 -40.6165642 139.22938548 -44 139 C-47.62587798 137.5990926 -48.74371811 136.46799302 -50.6171875 133.046875 C-52.57001 128.21637227 -52.44792136 123.45811919 -52.375 118.3125 C-52.36629883 117.27085693 -52.35759766 116.22921387 -52.34863281 115.15600586 C-52.02118679 97.03508933 -49.45462779 79.10520398 -46.49243164 61.25366211 C-45.25013333 53.727079 -44.1490541 46.19272421 -43.1875 38.625 C-43.05150391 37.62122314 -42.91550781 36.61744629 -42.77539062 35.58325195 C-42.05795304 29.72368829 -42.04032354 24.35862577 -42.78833008 18.49804688 C-43.47061743 10.44595438 -40.78339265 4.89592602 -35.8515625 -1.28515625 C-28.52624087 -8.0695786 -8.1863282 -3.53579707 0 0 Z M22 55 C23 57 23 57 23 57 Z M20 57 C19.67 57.99 19.34 58.98 19 60 C19.66 60 20.32 60 21 60 C20.67 59.01 20.34 58.02 20 57 Z M-8 60 C-7 62 -7 62 -7 62 Z M17 60 C17.33 60.66 17.66 61.32 18 62 C18.33 61.34 18.66 60.68 19 60 C18.34 60 17.68 60 17 60 Z M16 62 C17 64 17 64 17 64 Z M15 64 C14.34 65.32 13.68 66.64 13 68 C13.99 67.34 14.98 66.68 16 66 C15.67 65.34 15.34 64.68 15 64 Z M22 65 C20.8553125 66.175625 20.8553125 66.175625 19.6875 67.375 C17 70 17 70 14 72 C14 72.66 14 73.32 14 74 C15.98 73.67 17.96 73.34 20 73 C20.33 72.01 20.66 71.02 21 70 C21.66 69.67 22.32 69.34 23 69 C22.67 67.68 22.34 66.36 22 65 Z M12 68 C13 70 13 70 13 70 Z M22 70 C21.67 70.99 21.34 71.98 21 73 C21.66 73 22.32 73 23 73 C22.67 72.01 22.34 71.02 22 70 Z M47 138 C48 142 48 142 48 142 Z " fill="#000000" transform="translate(551,14)"/>
<path d="M0 0 C3.58012076 1.3630542 7.06074729 2.85827478 10.51171875 4.515625 C11.12724609 4.79019531 11.74277344 5.06476562 12.37695312 5.34765625 C16.85529232 7.5116208 18.63462649 9.62076025 20.32421875 14.265625 C20.58018331 18.04110223 20.52036816 20.67717676 19.32421875 24.265625 C20.64421875 24.595625 21.96421875 24.925625 23.32421875 25.265625 C22.99421875 26.255625 22.66421875 27.245625 22.32421875 28.265625 C21.33421875 28.265625 20.34421875 28.265625 19.32421875 28.265625 C18.98648438 29.24144531 18.64875 30.21726562 18.30078125 31.22265625 C17.8504805 32.50788963 17.39994749 33.79304165 16.94921875 35.078125 C16.7275 35.72072266 16.50578125 36.36332031 16.27734375 37.02539062 C15.20023025 40.08249217 14.13360014 42.55155291 12.32421875 45.265625 C12.98421875 45.925625 13.64421875 46.585625 14.32421875 47.265625 C13.31398771 49.7912026 12.3035868 52.3153844 11.26171875 54.828125 C10.43852825 56.9684203 9.82087186 59.03068602 9.32421875 61.265625 C8.66421875 61.265625 8.00421875 61.265625 7.32421875 61.265625 C7.26363281 62.33941406 7.20304688 63.41320312 7.140625 64.51953125 C7.05614224 65.95573815 6.97149821 67.39193558 6.88671875 68.828125 C6.84740234 69.53259766 6.80808594 70.23707031 6.76757812 70.96289062 C6.22763811 79.97573545 6.22763811 79.97573545 5.32421875 84.265625 C4.33421875 84.925625 3.34421875 85.585625 2.32421875 86.265625 C1.73940754 89.15158446 1.73940754 89.15158446 1.63671875 92.390625 C1.53810547 94.03417969 1.53810547 94.03417969 1.4375 95.7109375 C1.40011719 96.55398437 1.36273438 97.39703125 1.32421875 98.265625 C2.12214844 98.72195312 2.92007813 99.17828125 3.7421875 99.6484375 C6.52364461 101.39053015 7.33014751 102.19304117 8.32421875 105.265625 C8.76171875 107.765625 8.76171875 107.765625 8.32421875 110.265625 C4.73654329 114.17945277 1.51510374 114.85849677 -3.67578125 115.265625 C-3.84078125 116.503125 -4.00578125 117.740625 -4.17578125 119.015625 C-4.26859375 119.71171875 -4.36140625 120.4078125 -4.45703125 121.125 C-4.74355482 123.57020895 -4.74355482 123.57020895 -4.67578125 127.265625 C-3.68578125 127.595625 -2.69578125 127.925625 -1.67578125 128.265625 C-1.01578125 128.595625 -0.35578125 128.925625 0.32421875 129.265625 C0.32421875 130.255625 0.32421875 131.245625 0.32421875 132.265625 C-0.78953125 132.20375 -1.90328125 132.141875 -3.05078125 132.078125 C-4.24703125 132.14 -5.44328125 132.201875 -6.67578125 132.265625 C-7.33578125 133.255625 -7.99578125 134.245625 -8.67578125 135.265625 C-9.33578125 134.605625 -9.99578125 133.945625 -10.67578125 133.265625 C-14.69436978 130.58656598 -16.92883841 130.94379837 -21.67578125 131.265625 C-21.67578125 130.275625 -21.67578125 129.285625 -21.67578125 128.265625 C-18.21078125 127.275625 -18.21078125 127.275625 -14.67578125 126.265625 C-14.67578125 124.615625 -14.67578125 122.965625 -14.67578125 121.265625 C-16.65578125 121.265625 -18.63578125 121.265625 -20.67578125 121.265625 C-21.00578125 120.275625 -21.33578125 119.285625 -21.67578125 118.265625 C-21.67578125 119.585625 -21.67578125 120.905625 -21.67578125 122.265625 C-23.65578125 121.770625 -23.65578125 121.770625 -25.67578125 121.265625 C-25.67578125 120.605625 -25.67578125 119.945625 -25.67578125 119.265625 C-26.33578125 119.265625 -26.99578125 119.265625 -27.67578125 119.265625 C-27.34578125 120.915625 -27.01578125 122.565625 -26.67578125 124.265625 C-29.67578125 124.265625 -32.67578125 124.265625 -35.67578125 124.265625 C-37.93944149 124.73253098 -40.176383 125.28100005 -42.421875 125.828125 C-44.67578125 126.265625 -44.67578125 126.265625 -48.67578125 126.265625 C-48.67578125 126.925625 -48.67578125 127.585625 -48.67578125 128.265625 C-49.66578125 128.265625 -50.65578125 128.265625 -51.67578125 128.265625 C-52.00578125 129.255625 -52.33578125 130.245625 -52.67578125 131.265625 C-55.31578125 131.595625 -57.95578125 131.925625 -60.67578125 132.265625 C-59.01303926 133.51686546 -59.01303926 133.51686546 -56.67578125 134.265625 C-53.80907447 133.52028124 -51.31994859 132.58770867 -48.67578125 131.265625 C-48.67578125 132.915625 -48.67578125 134.565625 -48.67578125 136.265625 C-49.24425781 136.31460938 -49.81273438 136.36359375 -50.3984375 136.4140625 C-56.07533624 136.96374552 -61.51237478 137.68392177 -66.67578125 140.265625 C-72.4988356 141.86273082 -78.46436462 142.98757664 -84.36328125 144.265625 C-86.22629883 144.67554688 -86.22629883 144.67554688 -88.12695312 145.09375 C-94.65259408 146.5046994 -101.03659605 147.59823047 -107.67578125 148.265625 C-108.33578125 148.595625 -108.99578125 148.925625 -109.67578125 149.265625 C-113.34546178 149.53745319 -115.83494393 149.71838356 -119.11328125 147.953125 C-120.67578125 146.265625 -120.67578125 146.265625 -120.67578125 143.265625 C-121.33578125 143.265625 -121.99578125 143.265625 -122.67578125 143.265625 C-123.03929688 141.79802734 -123.03929688 141.79802734 -123.41015625 140.30078125 C-125.60515307 131.5311483 -125.60515307 131.5311483 -128.92578125 123.140625 C-131.66678281 117.23862969 -131.66678281 117.23862969 -130.67578125 114.265625 C-128.85253906 112.95214844 -128.85253906 112.95214844 -126.62890625 111.625 C-125.52530762 110.95936035 -125.52530762 110.95936035 -124.39941406 110.28027344 C-123.83061523 109.94543945 -123.26181641 109.61060547 -122.67578125 109.265625 C-122.71654785 108.5221582 -122.75731445 107.77869141 -122.79931641 107.01269531 C-123.57087126 92.24163045 -123.87731598 77.95354697 -121.93115234 63.27636719 C-121.47451877 59.68092352 -121.21343051 56.06874954 -120.921875 52.45703125 C-120.64837877 50.02161246 -120.16276605 47.66683467 -119.67578125 45.265625 C-119.4686854 43.7264682 -119.28041605 42.18463223 -119.11328125 40.640625 C-119.02949219 39.88523438 -118.94570312 39.12984375 -118.859375 38.3515625 C-118.63075814 35.75408586 -118.67753681 33.19891374 -118.74609375 30.59375 C-118.85088426 24.69554127 -118.71312731 19.81173372 -116.67578125 14.265625 C-116.40765625 13.399375 -116.13953125 12.533125 -115.86328125 11.640625 C-113.76698293 7.44802836 -110.52322715 4.83058893 -106.67578125 2.265625 C-103.38393614 2.48031055 -101.1790535 2.95585371 -98.359375 4.69140625 C-94.60571123 6.8933371 -90.66277953 7.94799626 -86.515625 9.203125 C-83.67578125 10.265625 -83.67578125 10.265625 -81.57421875 11.8828125 C-79.27028286 13.56098803 -78.1687643 13.56005026 -75.36328125 13.390625 C-69.93152582 13.20301503 -64.93726062 13.95025516 -59.67578125 15.265625 C-58.68578125 15.265625 -57.69578125 15.265625 -56.67578125 15.265625 C-56.67578125 14.605625 -56.67578125 13.945625 -56.67578125 13.265625 C-49.74578125 13.760625 -49.74578125 13.760625 -42.67578125 14.265625 C-42.34578125 13.605625 -42.01578125 12.945625 -41.67578125 12.265625 C-37.67578125 12.265625 -33.67578125 12.265625 -29.67578125 12.265625 C-28.58265625 12.08 -27.48953125 11.894375 -26.36328125 11.703125 C-22.92953856 11.2957318 -20.97218473 11.52393422 -17.67578125 12.265625 C-15.34276139 12.30387123 -13.00866617 12.31136784 -10.67578125 12.265625 C-10.58296875 10.96625 -10.58296875 10.96625 -10.48828125 9.640625 C-9.43351397 5.25928401 -7.76795484 3.50863632 -4.67578125 0.265625 C-2.67578125 -0.734375 -2.67578125 -0.734375 0 0 Z M-15.67578125 23.265625 C-15.67578125 23.925625 -15.67578125 24.585625 -15.67578125 25.265625 C-16.83078125 25.36875 -17.98578125 25.471875 -19.17578125 25.578125 C-23.7439645 26.16337268 -27.49049689 27.31730297 -31.67578125 29.265625 C-31.9078125 29.92691406 -32.13984375 30.58820312 -32.37890625 31.26953125 C-33.67578125 33.265625 -33.67578125 33.265625 -37.38671875 34.2421875 C-38.93887389 34.4758254 -40.49389353 34.69094306 -42.05078125 34.890625 C-43.26882446 35.07153687 -43.26882446 35.07153687 -44.51147461 35.25610352 C-46.89755574 35.60939571 -49.28561462 35.94126366 -51.67578125 36.265625 C-59.31595871 37.31857118 -65.79183279 38.6845811 -72.67578125 42.265625 C-72.01578125 42.595625 -71.35578125 42.925625 -70.67578125 43.265625 C-71.99578125 44.915625 -73.31578125 46.565625 -74.67578125 48.265625 C-75.33578125 47.935625 -75.99578125 47.605625 -76.67578125 47.265625 C-78.79709473 47.86748445 -78.79709473 47.86748445 -80.67578125 49.265625 C-81.58422538 51.16041344 -81.58422538 51.16041344 -81.94140625 53.3984375 C-82.10898438 54.20410156 -82.2765625 55.00976562 -82.44921875 55.83984375 C-82.68511719 57.10248047 -82.68511719 57.10248047 -82.92578125 58.390625 C-83.09851563 59.24011719 -83.27125 60.08960938 -83.44921875 60.96484375 C-83.87337629 63.06206714 -84.27659105 65.16350637 -84.67578125 67.265625 C-85.33578125 67.265625 -85.99578125 67.265625 -86.67578125 67.265625 C-86.34578125 64.955625 -86.01578125 62.645625 -85.67578125 60.265625 C-86.33578125 60.265625 -86.99578125 60.265625 -87.67578125 60.265625 C-87.67578125 60.925625 -87.67578125 61.585625 -87.67578125 62.265625 C-88.66578125 62.265625 -89.65578125 62.265625 -90.67578125 62.265625 C-92.80434839 65.00548681 -92.80434839 65.00548681 -93.05078125 67.640625 C-93.67578125 70.265625 -93.67578125 70.265625 -95.73828125 72.703125 C-98.10178865 75.82905414 -98.01602091 77.43792884 -97.67578125 81.265625 C-97.67578125 83.99092389 -97.94469005 86.67530341 -98.17578125 89.390625 C-98.26859375 90.48632812 -98.36140625 91.58203125 -98.45703125 92.7109375 C-98.5653125 93.97550781 -98.5653125 93.97550781 -98.67578125 95.265625 C-99.66578125 95.265625 -100.65578125 95.265625 -101.67578125 95.265625 C-101.67578125 95.925625 -101.67578125 96.585625 -101.67578125 97.265625 C-102.33578125 97.265625 -102.99578125 97.265625 -103.67578125 97.265625 C-104.33578125 100.895625 -104.99578125 104.525625 -105.67578125 108.265625 C-103.77966691 108.12349203 -101.88389731 107.97675593 -99.98828125 107.828125 C-98.93253906 107.74691406 -97.87679687 107.66570312 -96.7890625 107.58203125 C-94.02491828 107.30110819 -91.38632384 106.86405648 -88.67578125 106.265625 C-89.33578125 105.935625 -89.99578125 105.605625 -90.67578125 105.265625 C-90.55997994 102.95264612 -90.43264251 100.64024391 -90.30078125 98.328125 C-90.23117188 97.04035156 -90.1615625 95.75257812 -90.08984375 94.42578125 C-89.67578125 90.265625 -89.67578125 90.265625 -87.67578125 81.265625 C-87.67578125 89.185625 -87.67578125 97.105625 -87.67578125 105.265625 C-80.91994895 104.65145843 -74.23342401 104.00391894 -67.51953125 103.109375 C-65.81904959 102.8890204 -64.11852738 102.66897857 -62.41796875 102.44921875 C-59.80977249 102.11018242 -57.20191091 101.76910006 -54.59472656 101.42236328 C-42.29058717 99.79132769 -30.07963871 98.73808574 -17.67578125 98.265625 C-17.64661621 97.46084717 -17.61745117 96.65606934 -17.58740234 95.8269043 C-16.59203295 70.70877528 -13.45898137 46.10377518 -9.67578125 21.265625 C-12.13856926 21.265625 -13.52802244 22.12015363 -15.67578125 23.265625 Z M-62.67578125 27.265625 C-58.67578125 28.265625 -58.67578125 28.265625 -58.67578125 28.265625 Z M-56.67578125 27.265625 C-57.00578125 28.585625 -57.33578125 29.905625 -57.67578125 31.265625 C-53.38578125 31.265625 -49.09578125 31.265625 -44.67578125 31.265625 C-45.66578125 30.935625 -46.65578125 30.605625 -47.67578125 30.265625 C-47.34578125 29.275625 -47.01578125 28.285625 -46.67578125 27.265625 C-49.97578125 27.265625 -53.27578125 27.265625 -56.67578125 27.265625 Z M-44.67578125 29.265625 C-40.67578125 30.265625 -40.67578125 30.265625 -40.67578125 30.265625 Z M1.32421875 77.265625 C2.32421875 80.265625 2.32421875 80.265625 2.32421875 80.265625 Z M-101.67578125 86.265625 C-101.67578125 88.575625 -101.67578125 90.885625 -101.67578125 93.265625 C-101.34578125 93.265625 -101.01578125 93.265625 -100.67578125 93.265625 C-100.67578125 90.955625 -100.67578125 88.645625 -100.67578125 86.265625 C-101.00578125 86.265625 -101.33578125 86.265625 -101.67578125 86.265625 Z M-102.67578125 93.265625 C-101.67578125 95.265625 -101.67578125 95.265625 -101.67578125 95.265625 Z M-66.67578125 132.265625 C-66.67578125 133.255625 -66.67578125 134.245625 -66.67578125 135.265625 C-65.68578125 135.265625 -64.69578125 135.265625 -63.67578125 135.265625 C-63.67578125 134.605625 -63.67578125 133.945625 -63.67578125 133.265625 C-64.66578125 132.935625 -65.65578125 132.605625 -66.67578125 132.265625 Z " fill="#FF0000" transform="translate(132.67578125,8.734375)"/>
<path d="M0 0 C0 0.66 0 1.32 0 2 C0.97839844 2.29003906 0.97839844 2.29003906 1.9765625 2.5859375 C6.6771398 3.98640448 11.35840891 5.41208726 16 7 C16 7.99 16 8.98 16 10 C16.99 10.495 16.99 10.495 18 11 C18 11.66 18 12.32 18 13 C19.65 13 21.3 13 23 13 C23 14.65 23 16.3 23 18 C21.515 17.505 21.515 17.505 20 17 C17.85744207 17.38932856 17.85744207 17.38932856 16 18 C16.20625 18.70125 16.4125 19.4025 16.625 20.125 C17.08504249 23.65199244 16.21839685 25.68325301 15 29 C14.30518794 32.47406028 14 35.43997629 14 39 C13.649375 39.99 13.29875 40.98 12.9375 42 C11.92440819 45.2418938 12.20128018 45.88674173 13 49 C12.9140625 51.1484375 12.9140625 51.1484375 12.625 53.375 C12.52574219 54.15488281 12.42648437 54.93476562 12.32421875 55.73828125 C11.9282075 58.50081753 11.49303538 61.25308861 11 64 C10.34 64 9.68 64 9 64 C8.11504503 73.37104106 7.8829591 82.59771406 8 92 C9.32 92 10.64 92 12 92 C14.451644 93.90683422 14.99328314 94.97984943 16 98 C16.068991 100.06145107 16.08467727 102.12501401 16.0625 104.1875 C16.05347656 105.27417969 16.04445313 106.36085938 16.03515625 107.48046875 C16.02355469 108.31191406 16.01195312 109.14335938 16 110 C16.99 110 17.98 110 19 110 C18.505 111.98 18.505 111.98 18 114 C17.34 114 16.68 114 16 114 C16 114.66 16 115.32 16 116 C15.34 116 14.68 116 14 116 C13.67 116.66 13.34 117.32 13 118 C12.34 118 11.68 118 11 118 C10.67 118.66 10.34 119.32 10 120 C10.66 120 11.32 120 12 120 C12 120.66 12 121.32 12 122 C10.02 122.33 8.04 122.66 6 123 C7.64147562 128.8237826 7.64147562 128.8237826 11.6875 133 C12.450625 133.33 13.21375 133.66 14 134 C13.67 130.37 13.34 126.74 13 123 C13.66 123 14.32 123 15 123 C17.42811925 128.82748619 17.61727907 134.7757491 18 141 C17.67 140.34 17.34 139.68 17 139 C16.67 140.32 16.34 141.64 16 143 C15.01 143 14.02 143 13 143 C13.495 140.03 13.495 140.03 14 137 C12.68 136.67 11.36 136.34 10 136 C10.350625 136.5775 10.70125 137.155 11.0625 137.75 C12 140 12 140 11.875 142 C11 144 11 144 8.9375 145.9375 C6.72759614 147.86573518 6.72759614 147.86573518 6.75 150.75 C6.8325 151.4925 6.915 152.235 7 153 C0.14532379 153.41967405 -4.9904752 151.94154467 -10.3125 147.5625 C-14.34713727 143.33420014 -14.47635731 137.5795031 -15 132 C-16.65 132 -18.3 132 -20 132 C-20 131.34 -20 130.68 -20 130 C-20.763125 130.185625 -21.52625 130.37125 -22.3125 130.5625 C-25 131 -25 131 -28 130 C-28 130.99 -28 131.98 -28 133 C-30.43651378 133.36262997 -32.87376977 133.71538964 -35.3125 134.0625 C-36.00279297 134.16626953 -36.69308594 134.27003906 -37.40429688 134.37695312 C-40.69584836 134.83808836 -42.80216124 135.06594625 -46 134 C-46 134.66 -46 135.32 -46 136 C-47.670625 136.2165625 -47.670625 136.2165625 -49.375 136.4375 C-52.82142047 136.78372035 -52.82142047 136.78372035 -55 138 C-54.67 138.99 -54.34 139.98 -54 141 C-54.59167969 141.19335938 -55.18335938 141.38671875 -55.79296875 141.5859375 C-59.19614558 142.70737587 -62.56177587 143.81899438 -65.875 145.1875 C-68 146 -68 146 -71 146 C-71.33 148.31 -71.66 150.62 -72 153 C-75.3 153.33 -78.6 153.66 -82 154 C-82.33 151.69 -82.66 149.38 -83 147 C-83.66 147 -84.32 147 -85 147 C-87 144 -87 144 -87 141 C-87.66 141 -88.32 141 -89 141 C-90.18494305 138.98982875 -91.34722614 136.9662905 -92.5 134.9375 C-93.1496875 133.81214844 -93.799375 132.68679687 -94.46875 131.52734375 C-96.12550253 127.71089596 -96.29341705 125.11307826 -96 121 C-96.66 120.67 -97.32 120.34 -98 120 C-98 119.01 -98 118.02 -98 117 C-95.525 116.01 -95.525 116.01 -93 115 C-93.433125 113.6696875 -93.433125 113.6696875 -93.875 112.3125 C-96.68863182 102.32410703 -97.30425301 92.32769948 -97 82 C-97.99 82.99 -97.99 82.99 -99 84 C-99.495 81.525 -99.495 81.525 -100 79 C-99.01 78.505 -99.01 78.505 -98 78 C-98.01047363 77.41847168 -98.02094727 76.83694336 -98.03173828 76.23779297 C-98.21419075 64.43381134 -97.94653679 52.90022834 -96.63452148 41.16503906 C-95.87812951 33.70984645 -96.13031406 26.49333716 -96.98217773 19.05029297 C-97.47515489 13.48835721 -96.59279258 10.26584054 -93.49536133 5.60693359 C-91.78204471 3.76578257 -90.3458961 2.89054254 -88 2 C-85.1875 2.3125 -85.1875 2.3125 -82 3 C-78.65480658 3.54615403 -75.36743529 3.98241254 -71.98046875 4.14453125 C-63.70686702 4.55869292 -57.01800507 5.60014956 -50.5625 11.0625 C-46.33498533 16.30461819 -45.61635875 21.22414067 -45.71875 27.91796875 C-46.59450973 34.40102343 -50.46720751 38.58971542 -55 43 C-55.95231597 45.12119128 -55.95231597 45.12119128 -56 47 C-55.67 47.33 -55.34 47.66 -55 48 C-54.80658819 51.48141251 -55.15495323 54.61981291 -56 58 C-56.33 58.33 -56.66 58.66 -57 59 C-57.04915392 60.49919441 -57.03613409 62.00043529 -57 63.5 C-56.91698919 71.35489805 -57.4857112 79.16627946 -58 87 C-58.99 87 -59.98 87 -61 87 C-61 81.72 -61 76.44 -61 71 C-61.66 72.65 -62.32 74.3 -63 76 C-63.66 76 -64.32 76 -65 76 C-65.99 79.3 -66.98 82.6 -68 86 C-67.34 86 -66.68 86 -66 86 C-65.34 93.26 -64.68 100.52 -64 108 C-64 105.69 -64 103.38 -64 101 C-63.01 101.33 -62.02 101.66 -61 102 C-61 103.65 -61 105.3 -61 107 C-60.06027344 106.89171875 -60.06027344 106.89171875 -59.1015625 106.78125 C-58.28429687 106.6884375 -57.46703125 106.595625 -56.625 106.5 C-55.81289063 106.4071875 -55.00078125 106.314375 -54.1640625 106.21875 C-52 106 -52 106 -50 106 C-50.495 107.98 -50.495 107.98 -51 110 C-50.01 109.67 -49.02 109.34 -48 109 C-48.33 107.68 -48.66 106.36 -49 105 C-42.9031823 103.76520148 -37.21828636 102.86481986 -31 103 C-30.67 102.67 -30.34 102.34 -30 102 C-28.36154566 101.73992788 -26.71316296 101.54077677 -25.0625 101.375 C-24.16660156 101.27960938 -23.27070312 101.18421875 -22.34765625 101.0859375 C-20 101 -20 101 -18 102 C-17.01 101.34 -16.02 100.68 -15 100 C-16.485 99.01 -16.485 99.01 -18 98 C-17.7215625 97.0409375 -17.7215625 97.0409375 -17.4375 96.0625 C-17.293125 95.381875 -17.14875 94.70125 -17 94 C-17.33 93.67 -17.66 93.34 -18 93 C-18.04080783 91.00041636 -18.04254356 88.99954746 -18 87 C-17.34 87 -16.68 87 -16 87 C-15.67 84.03 -15.34 81.06 -15 78 C-14.01 77.67 -13.02 77.34 -12 77 C-13.98 76.505 -13.98 76.505 -16 76 C-16 74.02 -16 72.04 -16 70 C-16.66 70 -17.32 70 -18 70 C-17.88529863 68.24929483 -17.75780972 66.49942464 -17.625 64.75 C-17.55539062 63.77546875 -17.48578125 62.8009375 -17.4140625 61.796875 C-17.01255216 59.08478631 -16.25743379 57.39385931 -15 55 C-15.38932856 52.85744207 -15.38932856 52.85744207 -16 51 C-15.67 50.67 -15.34 50.34 -15 50 C-14.45288336 45.57996327 -14.19727156 41.12894675 -13.875 36.6875 C-13.77574219 35.43775391 -13.67648437 34.18800781 -13.57421875 32.90039062 C-13.44080078 31.09924805 -13.44080078 31.09924805 -13.3046875 29.26171875 C-13.22202637 28.15787842 -13.13936523 27.05403809 -13.05419922 25.91674805 C-13.00576261 23.31011668 -13.31935574 21.47740966 -14 19 C-13.546875 16.16015625 -13.546875 16.16015625 -12.75 13.0625 C-12.37101563 11.53302734 -12.37101563 11.53302734 -11.984375 9.97265625 C-10.73413653 6.19713452 -9.41847169 2.96090018 -6.0625 0.6875 C-4 0 -4 0 0 0 Z M-6 38 C-7.0967298 43.64503554 -7.0967298 43.64503554 -5 49 C-4.34 45.37 -3.68 41.74 -3 38 C-3.99 38 -4.98 38 -6 38 Z M-7 49 C-6 52 -6 52 -6 52 Z M0 57 C1 61 1 61 1 61 Z M-60 61 C-59 63 -59 63 -59 63 Z M-13 67 C-12 70 -12 70 -12 70 Z M-10 68 C-9 71 -9 71 -9 71 Z M-1 73 C0 76 0 76 0 76 Z M-2 79 C-1 81 -1 81 -1 81 Z M-2 83 C-2 86 -2 86 -2 86 Z M-3 88 C-2 91 -2 91 -2 91 Z M2 88 C3 92 3 92 3 92 Z M-69 89 C-69.33 90.98 -69.66 92.96 -70 95 C-69.34 94.34 -68.68 93.68 -68 93 C-68.3185177 90.89179203 -68.3185177 90.89179203 -69 89 Z M-16 89 C-16 92 -16 92 -16 92 Z M-3 94 C-3 96.64 -3 99.28 -3 102 C-2.67 102 -2.34 102 -2 102 C-2 99.36 -2 96.72 -2 94 C-2.33 94 -2.66 94 -3 94 Z M-69 95 C-69 97.64 -69 100.28 -69 103 C-68.67 103 -68.34 103 -68 103 C-67.67 100.69 -67.34 98.38 -67 96 C-67.66 95.67 -68.32 95.34 -69 95 Z M-23 105 C-21.515 105.99 -21.515 105.99 -20 107 C-20 106.34 -20 105.68 -20 105 C-20.99 105 -21.98 105 -23 105 Z M-69 106 C-69 107.32 -69 108.64 -69 110 C-68.34 110 -67.68 110 -67 110 C-67.66 108.68 -68.32 107.36 -69 106 Z M-45 107 C-44 109 -44 109 -44 109 Z M-44 124 C-40 125 -40 125 -40 125 Z M1 127 C2 130 2 130 2 130 Z " fill="#000000" transform="translate(726,6)"/>
<path d="M0 0 C4.23221058 0.74126416 7.51656107 0.69975117 11.7109375 -0.17333984 C20.20633352 -0.80092766 25.37056421 3.69445249 31.7109375 8.82666016 C32.47019531 9.30876953 33.22945313 9.79087891 34.01171875 10.28759766 C35.7109375 11.82666016 35.7109375 11.82666016 36.171875 14.06103516 C35.99285165 19.30153683 35.41494581 23.814871 33.7109375 28.82666016 C32.63436504 32.56102088 32.16670121 36.3549917 31.6484375 40.20166016 C31.47183594 41.48814453 31.29523438 42.77462891 31.11328125 44.10009766 C30.27209892 50.12038138 30.27209892 50.12038138 31.7109375 55.82666016 C32.0989192 57.82037634 32.44812396 59.82176486 32.7734375 61.82666016 C32.95003906 62.89916016 33.12664062 63.97166016 33.30859375 65.07666016 C33.7109375 67.82666016 33.7109375 67.82666016 33.7109375 69.82666016 C34.03342007 71.16265936 34.36866333 72.49559394 34.7109375 73.82666016 C34.9275 75.15697266 34.9275 75.15697266 35.1484375 76.51416016 C35.3340625 77.27728516 35.5196875 78.04041016 35.7109375 78.82666016 C36.3709375 79.15666016 37.0309375 79.48666016 37.7109375 79.82666016 C38.1021313 81.88931837 38.21768269 83.92109283 38.3671875 86.01416016 C38.480625 86.61228516 38.5940625 87.21041016 38.7109375 87.82666016 C39.3709375 88.15666016 40.0309375 88.48666016 40.7109375 88.82666016 C40.9275 90.46634766 40.9275 90.46634766 41.1484375 92.13916016 C41.73078476 95.95676995 42.45201976 96.90889141 44.7109375 99.82666016 C45.3984375 103.07666016 45.3984375 103.07666016 45.7109375 105.82666016 C45.0509375 105.82666016 44.3909375 105.82666016 43.7109375 105.82666016 C43.5871875 105.18728516 43.4634375 104.54791016 43.3359375 103.88916016 C43.1296875 103.20853516 42.9234375 102.52791016 42.7109375 101.82666016 C42.0509375 101.49666016 41.3909375 101.16666016 40.7109375 100.82666016 C41.4970702 103.26607192 42.28957283 105.70308957 43.0859375 108.13916016 C43.30765625 108.82945313 43.529375 109.51974609 43.7578125 110.23095703 C44.81027141 113.43476578 45.82849877 116.00300207 47.7109375 118.82666016 C48.10553773 121.15041707 48.43323842 123.48605366 48.7109375 125.82666016 C49.0383697 127.82763473 49.36970169 129.82799329 49.7109375 131.82666016 C48.7209375 131.82666016 47.7309375 131.82666016 46.7109375 131.82666016 C47.0409375 132.81666016 47.3709375 133.80666016 47.7109375 134.82666016 C47.85896497 137.67334228 47.94192454 140.47946973 47.9609375 143.32666016 C47.9815625 144.09880859 48.0021875 144.87095703 48.0234375 145.66650391 C48.0627937 151.34363543 48.0627937 151.34363543 46.44042969 153.57080078 C44.7109375 154.82666016 44.7109375 154.82666016 40.7109375 154.82666016 C39.11328125 153.40087891 39.11328125 153.40087891 37.6484375 151.51416016 C35.32540886 148.57494354 32.96334879 145.9287821 30.1484375 143.45166016 C28.7109375 141.82666016 28.7109375 141.82666016 27.7890625 139.51025391 C26.73649076 136.89026555 25.50499446 134.66306472 24.0234375 132.26416016 C23.50136719 131.40693359 22.97929687 130.54970703 22.44140625 129.66650391 C21.87035156 128.72935547 21.29929687 127.79220703 20.7109375 126.82666016 C19.41237286 124.66412065 18.1206834 122.49743771 16.8359375 120.32666016 C16.24039063 119.32634766 15.64484375 118.32603516 15.03125 117.29541016 C13.7109375 114.82666016 13.7109375 114.82666016 13.7109375 112.82666016 C13.0509375 112.82666016 12.3909375 112.82666016 11.7109375 112.82666016 C10.7209375 110.84666016 9.7309375 108.86666016 8.7109375 106.82666016 C7.0609375 106.82666016 5.4109375 106.82666016 3.7109375 106.82666016 C3.68515625 107.41833984 3.659375 108.01001953 3.6328125 108.61962891 C3.24334137 114.04566985 2.39943151 116.66223144 -1.2890625 120.82666016 C-1.2890625 122.14666016 -1.2890625 123.46666016 -1.2890625 124.82666016 C-2.3821875 124.95041016 -3.4753125 125.07416016 -4.6015625 125.20166016 C-8.36288052 125.58130816 -8.36288052 125.58130816 -11.2890625 127.82666016 C-11.7428125 128.50728516 -12.1965625 129.18791016 -12.6640625 129.88916016 C-14.71936866 132.3397175 -16.17751839 132.49027701 -19.2890625 132.82666016 C-19.2890625 131.50666016 -19.2890625 130.18666016 -19.2890625 128.82666016 C-22.2590625 129.15666016 -25.2290625 129.48666016 -28.2890625 129.82666016 C-28.2890625 128.50666016 -28.2890625 127.18666016 -28.2890625 125.82666016 C-27.2990625 125.49666016 -26.3090625 125.16666016 -25.2890625 124.82666016 C-26.0521875 123.91916016 -26.8153125 123.01166016 -27.6015625 122.07666016 C-31.22718925 117.02557331 -33.80666586 109.8682206 -33.00390625 103.60009766 C-31.84994564 100.7372664 -29.79698654 99.51805079 -27.2890625 97.82666016 C-23.86328941 96.65441226 -20.5910816 96.71202799 -16.9921875 96.72900391 C-15.18427734 96.73383789 -15.18427734 96.73383789 -13.33984375 96.73876953 C-12.08558594 96.74714844 -10.83132813 96.75552734 -9.5390625 96.76416016 C-7.63447266 96.77092773 -7.63447266 96.77092773 -5.69140625 96.77783203 C-2.55724414 96.7896146 0.57682291 96.80606599 3.7109375 96.82666016 C3.0509375 95.87791016 2.3909375 94.92916016 1.7109375 93.95166016 C-0.2890625 90.82666016 -0.2890625 90.82666016 -0.2890625 88.82666016 C-0.9490625 88.82666016 -1.6090625 88.82666016 -2.2890625 88.82666016 C-5.00876966 83.57481184 -7.30001801 78.39598473 -9.2890625 72.82666016 C-10.2790625 74.47666016 -11.2690625 76.12666016 -12.2890625 77.82666016 C-13.2790625 77.49666016 -14.2690625 77.16666016 -15.2890625 76.82666016 C-15.65257812 77.42994141 -16.01609375 78.03322266 -16.390625 78.65478516 C-21.00331501 85.98777953 -21.00331501 85.98777953 -24.6640625 88.20166016 C-25.5303125 88.73791016 -26.3965625 89.27416016 -27.2890625 89.82666016 C-27.2890625 90.81666016 -27.2890625 91.80666016 -27.2890625 92.82666016 C-28.2790625 92.82666016 -29.2690625 92.82666016 -30.2890625 92.82666016 C-30.49402344 93.45314453 -30.69898438 94.07962891 -30.91015625 94.72509766 C-31.17957031 95.54236328 -31.44898438 96.35962891 -31.7265625 97.20166016 C-31.99339844 98.01376953 -32.26023437 98.82587891 -32.53515625 99.66259766 C-33.2890625 101.82666016 -33.2890625 101.82666016 -34.2890625 103.82666016 C-34.9490625 103.82666016 -35.6090625 103.82666016 -36.2890625 103.82666016 C-36.7221875 105.18791016 -36.7221875 105.18791016 -37.1640625 106.57666016 C-38.05438026 109.14868923 -39.00400663 111.44012782 -40.2890625 113.82666016 C-40.9490625 113.82666016 -41.6090625 113.82666016 -42.2890625 113.82666016 C-42.6190625 114.48666016 -42.9490625 115.14666016 -43.2890625 115.82666016 C-43.9490625 116.81666016 -44.6090625 117.80666016 -45.2890625 118.82666016 C-43.9690625 118.82666016 -42.6490625 118.82666016 -41.2890625 118.82666016 C-41.6190625 119.81666016 -41.9490625 120.80666016 -42.2890625 121.82666016 C-43.7740625 121.33166016 -43.7740625 121.33166016 -45.2890625 120.82666016 C-46.6090625 123.13666016 -47.9290625 125.44666016 -49.2890625 127.82666016 C-50.2790625 127.82666016 -51.2690625 127.82666016 -52.2890625 127.82666016 C-52.51980469 128.51373047 -52.75054687 129.20080078 -52.98828125 129.90869141 C-54.5800363 133.47938516 -56.73359191 136.43475216 -59.1015625 139.51416016 C-59.52759766 140.09488281 -59.95363281 140.67560547 -60.39257812 141.27392578 C-63.02041276 144.71277141 -65.08803117 146.65761194 -69.2890625 147.82666016 C-72.13599633 142.30025919 -70.87492406 137.85436946 -69.20092773 132.06054688 C-68.75614362 130.70705843 -68.30473547 129.35573362 -67.84765625 128.00634766 C-67.48272064 126.90738663 -67.48272064 126.90738663 -67.1104126 125.78622437 C-66.32266861 123.42233663 -65.52536876 121.0618307 -64.7265625 118.70166016 C-64.4555069 117.89531128 -64.18445129 117.0889624 -63.90518188 116.25817871 C-56.81170994 95.16308806 -49.21165235 74.37108906 -39.1015625 54.51416016 C-33.71108058 43.88016299 -29.09194435 32.92888055 -29.35546875 20.76025391 C-29.22786776 15.12329255 -26.19011426 8.90503245 -22.2890625 4.82666016 C-21.6290625 4.82666016 -20.9690625 4.82666016 -20.2890625 4.82666016 C-20.2890625 4.16666016 -20.2890625 3.50666016 -20.2890625 2.82666016 C-13.2453323 -1.27089443 -7.76650997 -1.37438958 0 0 Z M-13.2890625 70.82666016 C-12.2890625 72.82666016 -12.2890625 72.82666016 -12.2890625 72.82666016 Z M-14.2890625 72.82666016 C-13.2890625 74.82666016 -13.2890625 74.82666016 -13.2890625 74.82666016 Z M39.7109375 97.82666016 C40.7109375 99.82666016 40.7109375 99.82666016 40.7109375 99.82666016 Z M42.7109375 127.82666016 C43.3709375 129.14666016 44.0309375 130.46666016 44.7109375 131.82666016 C45.3709375 131.82666016 46.0309375 131.82666016 46.7109375 131.82666016 C46.0509375 130.50666016 45.3909375 129.18666016 44.7109375 127.82666016 C44.0509375 127.82666016 43.3909375 127.82666016 42.7109375 127.82666016 Z " fill="#FF0000" transform="translate(365.2890625,11.17333984375)"/>
<path d="M0 0 C4.18596821 0.52324603 7.37406931 2.09058783 11.03515625 4.0625 C18.31924264 7.53800842 26.92494751 6.09296366 34.68359375 5.21875 C37.79051414 4.92534774 40.88106569 5 44 5 C45.051875 4.79375 46.10375 4.5875 47.1875 4.375 C50.27544303 3.96327426 51.43686316 4.32410283 54 6 C54 5.34 54 4.68 54 4 C58.88901152 3.80443954 62.40527883 4.4358396 67 6 C67.9075 5.95875 68.815 5.9175 69.75 5.875 C75.53692755 6.09757414 80.93874059 8.40252396 85.5 11.9375 C87.63593692 14.87441327 89.09961322 17.35638188 88.875 21.0625 C87.72488047 23.60919325 86.05733691 25.14176021 84 27 C84.33 27.33 84.66 27.66 85 28 C85.36162029 29.32594105 85.69728039 30.65938457 86 32 C85.17822266 31.90912109 85.17822266 31.90912109 84.33984375 31.81640625 C81.56175075 31.52278666 78.78123024 31.26225 76 31 C74.89914062 30.88140625 73.79828125 30.7628125 72.6640625 30.640625 C65.24790118 29.96496605 58.27190086 30.04700925 50.875 30.8125 C50.0694165 30.8947583 49.26383301 30.9770166 48.43383789 31.06176758 C44.32043479 31.54164293 40.78286523 32.19972076 37 34 C36.67 33.67 36.34 33.34 36 33 C34.00016466 33.79117904 34.00016466 33.79117904 32 35 C31.67 35.99 31.34 36.98 31 38 C32.14045776 37.90912109 32.14045776 37.90912109 33.30395508 37.81640625 C36.80646967 37.53984295 40.30946474 37.26988507 43.8125 37 C45.00810547 36.90460937 46.20371094 36.80921875 47.43554688 36.7109375 C57.5258355 35.94110622 67.38658582 35.5454615 77.4375 36.875 C78.11748047 36.95363281 78.79746094 37.03226563 79.49804688 37.11328125 C83.0256019 37.56155315 85.94368783 38.13963607 89 40 C89 40.66 89 41.32 89 42 C88.1234375 41.855625 87.246875 41.71125 86.34375 41.5625 C67.89862143 38.86321289 49.42450974 39.39451377 31 42 C34.3 42 37.6 42 41 42 C40.67 42.99 40.34 43.98 40 45 C38.7625 45.12375 37.525 45.2475 36.25 45.375 C31.82010334 45.88278872 31.82010334 45.88278872 28 48 C27.28293018 49.98248715 26.61709587 51.98415349 26 54 C24.375 55.875 24.375 55.875 23 57 C23.66 57 24.32 57 25 57 C23.60695059 64.40774509 21.88100377 71.70170537 20 79 C19.34 79 18.68 79 18 79 C18 78.01 18 77.02 18 76 C17.34 76.66 16.68 77.32 16 78 C16.33 78.66 16.66 79.32 17 80 C16.6953125 82.171875 16.6953125 82.171875 16.125 84.75 C15.50798011 87.60885881 14.93680499 90.41866696 14.5 93.3125 C14 96 14 96 13.0390625 98.33203125 C10.45805424 104.95920659 9.84674017 111.95004803 10 119 C9.67 119.33 9.34 119.66 9 120 C8.84579153 122.59781969 8.76830456 125.15075286 8.75 127.75 C8.729375 128.46671875 8.70875 129.1834375 8.6875 129.921875 C8.65321572 134.58453688 9.43819317 137.16753698 12 141 C11.6875 144.3125 11.6875 144.3125 11 147 C10.01 147.33 9.02 147.66 8 148 C8.495 151.465 8.495 151.465 9 155 C1.59314498 157.46895167 -6.49275038 156.02826233 -13.5 152.875 C-14.2425 152.441875 -14.2425 152.441875 -15 152 C-15 151.34 -15 150.68 -15 150 C-15.66 149.67 -16.32 149.34 -17 149 C-16.34 148.01 -15.68 147.02 -15 146 C-15.7215624 144.26169057 -16.45256508 142.52556588 -17.265625 140.828125 C-18.32562567 138.18939992 -18.11976438 135.81446282 -18 133 C-18.3159456 130.99717962 -18.65102413 128.99732996 -19 127 C-20.94020252 114.02612051 -20.51076291 98.6716022 -17 86 C-16.34 86 -15.68 86 -15 86 C-15.04125 84.72125 -15.0825 83.4425 -15.125 82.125 C-15.15111357 76.07535738 -14.40575747 70.14761902 -13.62353516 64.15869141 C-13.04227547 59.52563235 -13.04227547 59.52563235 -14 55 C-16.49552484 55.78130071 -16.49552484 55.78130071 -19 57 C-19.33 57.99 -19.66 58.98 -20 60 C-20.99 60 -21.98 60 -23 60 C-24.86459958 60.39065162 -26.71856267 60.83371467 -28.5625 61.3125 C-29.53316406 61.55613281 -30.50382812 61.79976562 -31.50390625 62.05078125 C-34.31479587 62.84326766 -34.31479587 62.84326766 -36 66 C-39.37888177 66.71763861 -42.60442179 66.58103301 -46 66 C-49.125 63.6875 -49.125 63.6875 -51 61 C-51 60.01 -51 59.02 -51 58 C-49.906875 58.04125 -48.81375 58.0825 -47.6875 58.125 C-43.91107771 58.32074666 -43.91107771 58.32074666 -41 56 C-42.11375 55.79375 -43.2275 55.5875 -44.375 55.375 C-48 54 -48 54 -49.4375 50.875 C-49.623125 49.92625 -49.80875 48.9775 -50 48 C-50.66 48 -51.32 48 -52 48 C-52.17015625 47.443125 -52.3403125 46.88625 -52.515625 46.3125 C-53.7750381 42.34668855 -55.10902091 38.61764974 -57.0625 34.9375 C-59.1077496 30.96591066 -60.33407544 27.43949708 -61 23 C-60.0859375 20.859375 -60.0859375 20.859375 -58 19 C-54.99602856 18.30098157 -52.23410239 17.83922315 -49.1875 17.5 C-47.37972877 17.26803009 -45.57244857 17.03220809 -43.765625 16.79296875 C-42.82267578 16.66970215 -41.87972656 16.54643555 -40.90820312 16.41943359 C-35.1603713 15.59045651 -29.4651829 14.43020175 -23.77612305 13.26953125 C-17.45967756 12.05132988 -11.42574216 11.7992196 -5 12 C-4.9175 10.948125 -4.835 9.89625 -4.75 8.8125 C-3.94679238 4.72952791 -2.80665291 2.9877273 0 0 Z M51 22 C51 22.66 51 23.32 51 24 C50.401875 23.649375 49.80375 23.29875 49.1875 22.9375 C46.89186786 21.66695302 46.89186786 21.66695302 44 23 C44 23.66 44 24.32 44 25 C50.27 25 56.54 25 63 25 C61.68 24.67 60.36 24.34 59 24 C59 23.01 59 22.02 59 21 C56.2716232 21 53.68345937 21.53331141 51 22 Z M38 24 C38 24.66 38 25.32 38 26 C39.65 26 41.3 26 43 26 C42.67 25.34 42.34 24.68 42 24 C40.68 24 39.36 24 38 24 Z M-11 41 C-14.96 42.98 -18.92 44.96 -23 47 C-23 47.33 -23 47.66 -23 48 C-21.58249437 47.88490339 -20.16598831 47.75746342 -18.75 47.625 C-17.96109375 47.55539063 -17.1721875 47.48578125 -16.359375 47.4140625 C-13.914123 46.98492887 -12.15163097 46.21399362 -10 45 C-10.33 43.68 -10.66 42.36 -11 41 Z M20 62 C21 64 21 64 21 64 Z M19 65 C17.22240124 69.96920684 17.22240124 69.96920684 18 75 C18.33 75 18.66 75 19 75 C19.33 71.7 19.66 68.4 20 65 C19.67 65 19.34 65 19 65 Z M5 86 C6 88 6 88 6 88 Z M4 88 C5 92 5 92 5 92 Z M9 88 C10 90 10 90 10 90 Z M2 92 C1.34 95.63 0.68 99.26 0 103 C0.66 103 1.32 103 2 103 C2.66 99.37 3.32 95.74 4 92 C3.34 92 2.68 92 2 92 Z M7 95 C8 98 8 98 8 98 Z M6 102 C7 104 7 104 7 104 Z M5 105 C6 107 6 107 6 107 Z M0 106 C1 108 1 108 1 108 Z M-1 108 C0 110 0 110 0 110 Z " fill="#FF0000" transform="translate(234,4)"/>
<path d="M0 0 C0.81159576 -0.00953201 1.62319153 -0.01906403 2.4593811 -0.02888489 C3.33436249 -0.02797348 4.20934387 -0.02706207 5.11083984 -0.02612305 C6.47080582 -0.03255074 6.47080582 -0.03255074 7.85824585 -0.03910828 C9.77983771 -0.04485401 11.70145132 -0.04535005 13.62304688 -0.04101562 C16.53993798 -0.03787607 19.45579443 -0.0612402 22.37255859 -0.08666992 C24.24365107 -0.08894517 26.11474626 -0.08964537 27.98583984 -0.08862305 C29.28009384 -0.10243767 29.28009384 -0.10243767 30.60049438 -0.11653137 C36.341522 -0.07347384 41.77805879 0.60620736 46.94677734 3.2746582 C49.12762792 6.54593406 49.19565593 7.54842543 49.13427734 11.3371582 C49.12783203 12.21500977 49.12138672 13.09286133 49.11474609 13.99731445 C48.94677734 16.2746582 48.94677734 16.2746582 47.94677734 18.2746582 C47.28677734 18.2746582 46.62677734 18.2746582 45.94677734 18.2746582 C45.45177734 19.7596582 45.45177734 19.7596582 44.94677734 21.2746582 C43.83560547 21.2024707 42.72443359 21.1302832 41.57958984 21.0559082 C23.04801974 19.77039519 23.04801974 19.77039519 4.81787109 22.9074707 C1.52860463 23.5529635 -0.35606079 22.05363731 -3.05322266 20.2746582 C-6.65909084 14.55500522 -7.55894554 8.97548637 -7.05322266 2.2746582 C-4.01561328 0.24958529 -3.41130322 0.02206488 0 0 Z " fill="#000000" transform="translate(435.05322265625,93.725341796875)"/>
<path d="M0 0 C8.8075617 1.72321859 16.11068902 7.37452514 22 14 C24 17 24 17 24.6875 19.75 C23.70362677 24.40103711 20.99371167 25.8596596 17.26171875 28.58203125 C15 30 15 30 12 31 C11.67 31.66 11.34 32.32 11 33 C10.01 33 9.02 33 8 33 C7.67 32.34 7.34 31.68 7 31 C6.443125 31.20625 5.88625 31.4125 5.3125 31.625 C2.26735717 32.11880695 0.70459759 31.42347241 -2 30 C-6.0607857 23.90882145 -5.73120214 15.10997866 -5 8 C-3.84872098 4.92817824 -2.35013779 2.35013779 0 0 Z " fill="#FF0000" transform="translate(74,59)"/>
<path d="M0 0 C0.66 0.66 1.32 1.32 2 2 C1.64453125 4.16015625 1.64453125 4.16015625 0.8125 7.0625 C-1.91955116 17.84434475 -2.79641941 28.96395288 -4 40 C-4.99 40 -5.98 40 -7 40 C-7.27798904 31.96422359 -6.48525584 24.46396409 -5.0625 16.5625 C-4.88009766 15.50095703 -4.69769531 14.43941406 -4.50976562 13.34570312 C-4.02571568 10.5593356 -3.5376125 7.77652691 -3 5 C-2.85618896 4.25226318 -2.71237793 3.50452637 -2.56420898 2.73413086 C-2.28492554 1.87573608 -2.28492554 1.87573608 -2 1 C-1.34 0.67 -0.68 0.34 0 0 Z " fill="#000000" transform="translate(750,45)"/>
<path d="M0 0 C1.32 0.33 2.64 0.66 4 1 C4 1.99 4 2.98 4 4 C3.01 4 2.02 4 1 4 C1 4.66 1 5.32 1 6 C0.01 6 -0.98 6 -2 6 C-2 6.66 -2 7.32 -2 8 C-2.86625 7.835 -3.7325 7.67 -4.625 7.5 C-7.81225199 7.02781452 -10.78485027 6.92344882 -14 7 C-14 6.01 -14 5.02 -14 4 C-13.2575 4.020625 -12.515 4.04125 -11.75 4.0625 C-9.29537721 4.00671312 -7.33890739 3.6930096 -5 3 C-5 2.34 -5 1.68 -5 1 C-4.01 1 -3.02 1 -2 1 C-2 1.66 -2 2.32 -2 3 C-1.34 3 -0.68 3 0 3 C0 2.01 0 1.02 0 0 Z " fill="#FF0000" transform="translate(99,137)"/>
<path d="M0 0 C1.98 0 3.96 0 6 0 C7 3 7 3 5.875 6.125 C4 9 4 9 1.3125 9.875 C0.549375 9.91625 -0.21375 9.9575 -1 10 C-2.46726798 6.18510326 -1.43336419 3.70988378 0 0 Z " fill="#000000" transform="translate(703,53)"/>
<path d="M0 0 C2 3 2 3 1.8125 5.125 C1.544375 5.74375 1.27625 6.3625 1 7 C0.01 7.33 -0.98 7.66 -2 8 C-2 8.66 -2 9.32 -2 10 C-3.32 9.67 -4.64 9.34 -6 9 C-5.690625 8.236875 -5.38125 7.47375 -5.0625 6.6875 C-4.32106407 4.81210323 -3.63771783 2.91315348 -3 1 C-2.01 0.67 -1.02 0.34 0 0 Z " fill="#000000" transform="translate(603,55)"/>
<path d="M0 0 C0.66 0 1.32 0 2 0 C2 4.29 2 8.58 2 13 C1.01 13 0.02 13 -1 13 C-1.02708567 11.39592672 -1.04643483 9.7917215 -1.0625 8.1875 C-1.07410156 7.29417969 -1.08570313 6.40085937 -1.09765625 5.48046875 C-1 3 -1 3 0 0 Z " fill="#000000" transform="translate(743,86)"/>
<path d="M0 0 C0.99 0 1.98 0 3 0 C2.1875 2.9375 2.1875 2.9375 1 6 C0.01 6.33 -0.98 6.66 -2 7 C-1.125 1.125 -1.125 1.125 0 0 Z " fill="#FF0000" transform="translate(93,86)"/>
<path d="M0 0 C0.99 0 1.98 0 3 0 C3 1.65 3 3.3 3 5 C1.68 5 0.36 5 -1 5 C-0.67 3.35 -0.34 1.7 0 0 Z " fill="#FF0000" transform="translate(102,76)"/>
<path d="M0 0 C2.31 0.33 4.62 0.66 7 1 C6.67 1.99 6.34 2.98 6 4 C3.03 3.505 3.03 3.505 0 3 C0 2.01 0 1.02 0 0 Z " fill="#FF0000" transform="translate(310,50)"/>
<path d="M0 0 C0.66 0 1.32 0 2 0 C1.67 2.31 1.34 4.62 1 7 C-0.32 6.34 -1.64 5.68 -3 5 C-2.67 4.34 -2.34 3.68 -2 3 C-1.34 3 -0.68 3 0 3 C0 2.01 0 1.02 0 0 Z " fill="#000000" transform="translate(751,21)"/>
<path d="M0 0 C0.66 0 1.32 0 2 0 C1.67 2.97 1.34 5.94 1 9 C0.34 9 -0.32 9 -1 9 C-0.67 6.03 -0.34 3.06 0 0 Z " fill="#FF0000" transform="translate(251,85)"/>
<path d="M0 0 C-0.33 0.99 -0.66 1.98 -1 3 C-2.98 3 -4.96 3 -7 3 C-7 2.34 -7 1.68 -7 1 C-4.53721199 -0.231394 -2.7204945 -0.07159196 0 0 Z " fill="#FF0000" transform="translate(292,45)"/>
<path d="M0 0 C0.268125 0.639375 0.53625 1.27875 0.8125 1.9375 C1.88667752 4.33131686 1.88667752 4.33131686 5 5 C4.67 5.66 4.34 6.32 4 7 C3.01 6.34 2.02 5.68 1 5 C1 4.34 1 3.68 1 3 C0.34 3 -0.32 3 -1 3 C-0.67 2.01 -0.34 1.02 0 0 Z " fill="#000000" transform="translate(744,157)"/>
<path d="M0 0 C0.33 0 0.66 0 1 0 C1 1.65 1 3.3 1 5 C0.01 5.33 -0.98 5.66 -2 6 C-1.125 1.125 -1.125 1.125 0 0 Z " fill="#000000" transform="translate(746,31)"/>
<path d="M0 0 C0.66 0.66 1.32 1.32 2 2 C1.67 2.66 1.34 3.32 1 4 C-0.32 4 -1.64 4 -3 4 C-2.67 3.01 -2.34 2.02 -2 1 C-1.34 0.67 -0.68 0.34 0 0 Z " fill="#000000" transform="translate(680,142)"/>
<path d="M0 0 C0.99 0 1.98 0 3 0 C3 1.32 3 2.64 3 4 C2.01 4 1.02 4 0 4 C0 2.68 0 1.36 0 0 Z " fill="#000000" transform="translate(529,147)"/>
<path d="M0 0 C0.66 0 1.32 0 2 0 C2 1.65 2 3.3 2 5 C1.01 4.67 0.02 4.34 -1 4 C-0.67 2.68 -0.34 1.36 0 0 Z " fill="#000000" transform="translate(743,100)"/>
<path d="M0 0 C0.99 0.33 1.98 0.66 3 1 C3 1.99 3 2.98 3 4 C2.01 4 1.02 4 0 4 C0 2.68 0 1.36 0 0 Z " fill="#FF0000" transform="translate(37,99)"/>
<path d="M0 0 C1.32 0 2.64 0 4 0 C4 0.99 4 1.98 4 3 C2.68 2.67 1.36 2.34 0 2 C0 1.34 0 0.68 0 0 Z " fill="#FF0000" transform="translate(96,51)"/>
<path d="M0 0 C1.32 0 2.64 0 4 0 C3.67 0.99 3.34 1.98 3 3 C2.01 2.67 1.02 2.34 0 2 C0 1.34 0 0.68 0 0 Z " fill="#FF0000" transform="translate(304,62)"/>
<path d="M0 0 C1.65 0 3.3 0 5 0 C5 0.66 5 1.32 5 2 C3.35 2 1.7 2 0 2 C0 1.34 0 0.68 0 0 Z " fill="#FF0000" transform="translate(306,46)"/>
<path d="M0 0 C1.98 0.99 1.98 0.99 4 2 C4 2.66 4 3.32 4 4 C2.68 3.34 1.36 2.68 0 2 C0 1.34 0 0.68 0 0 Z " fill="#000000" transform="translate(498,42)"/>
<path d="M0 0 C0.99 0 1.98 0 3 0 C3 0.99 3 1.98 3 3 C2.01 3 1.02 3 0 3 C0 2.01 0 1.02 0 0 Z " fill="#000000" transform="translate(665,150)"/>
<path d="M0 0 C0.99 0 1.98 0 3 0 C3 0.99 3 1.98 3 3 C2.01 3 1.02 3 0 3 C0 2.01 0 1.02 0 0 Z " fill="#FF0000" transform="translate(107,137)"/>
<path d="M0 0 C0.99 0 1.98 0 3 0 C3 0.99 3 1.98 3 3 C2.01 3 1.02 3 0 3 C0 2.01 0 1.02 0 0 Z " fill="#FF0000" transform="translate(262,120)"/>
<path d="M0 0 C0.99 0 1.98 0 3 0 C3 0.99 3 1.98 3 3 C2.01 3 1.02 3 0 3 C0 2.01 0 1.02 0 0 Z " fill="#000000" transform="translate(478,116)"/>
<path d="M0 0 C0.99 0 1.98 0 3 0 C3 0.99 3 1.98 3 3 C2.01 3 1.02 3 0 3 C0 2.01 0 1.02 0 0 Z " fill="#FF0000" transform="translate(97,86)"/>
<path d="M0 0 C0.99 0 1.98 0 3 0 C3 0.99 3 1.98 3 3 C2.01 3 1.02 3 0 3 C0 2.01 0 1.02 0 0 Z " fill="#000000" transform="translate(594,66)"/>
<path d="M0 0 C0.99 0 1.98 0 3 0 C3 0.99 3 1.98 3 3 C2.01 3 1.02 3 0 3 C0 2.01 0 1.02 0 0 Z " fill="#FF0000" transform="translate(101,51)"/>
<path d="M0 0 C0.99 0 1.98 0 3 0 C3 0.99 3 1.98 3 3 C2.01 3 1.02 3 0 3 C0 2.01 0 1.02 0 0 Z " fill="#000000" transform="translate(474,25)"/>
<path d="M0 0 C0.99 0 1.98 0 3 0 C3 0.99 3 1.98 3 3 C2.01 2.67 1.02 2.34 0 2 C0 1.34 0 0.68 0 0 Z " fill="#FF0000" transform="translate(252,160)"/>
<path d="M0 0 C1.32 0 2.64 0 4 0 C4 0.66 4 1.32 4 2 C2.68 2 1.36 2 0 2 C0 1.34 0 0.68 0 0 Z " fill="#FF0000" transform="translate(271,130)"/>
<path d="M0 0 C0.66 0 1.32 0 2 0 C2 0.99 2 1.98 2 3 C1.01 3 0.02 3 -1 3 C-0.67 2.01 -0.34 1.02 0 0 Z " fill="#FF0000" transform="translate(411,117)"/>
<path d="M0 0 C0.66 0 1.32 0 2 0 C2 0.99 2 1.98 2 3 C1.01 3 0.02 3 -1 3 C-0.67 2.01 -0.34 1.02 0 0 Z " fill="#FF0000" transform="translate(46,77)"/>
<path d="M0 0 C0.99 0.33 1.98 0.66 3 1 C2.67 1.66 2.34 2.32 2 3 C1.34 3 0.68 3 0 3 C0 2.01 0 1.02 0 0 Z " fill="#FF0000" transform="translate(181,84)"/>
<path d="M0 0 C0.99 0 1.98 0 3 0 C2.67 0.99 2.34 1.98 2 3 C1.34 2.67 0.68 2.34 0 2 C0 1.34 0 0.68 0 0 Z " fill="#FF0000" transform="translate(322,50)"/>
<path d="M0 0 C0.99 0 1.98 0 3 0 C2.67 0.99 2.34 1.98 2 3 C1.34 2.67 0.68 2.34 0 2 C0 1.34 0 0.68 0 0 Z " fill="#FF0000" transform="translate(157,32)"/>
<path d="M0 0 C0.66 0 1.32 0 2 0 C2 0.99 2 1.98 2 3 C1.34 3 0.68 3 0 3 C0 2.01 0 1.02 0 0 Z " fill="#000000" transform="translate(662,103)"/>
<path d="M0 0 C0.66 0 1.32 0 2 0 C2 0.99 2 1.98 2 3 C1.34 3 0.68 3 0 3 C0 2.01 0 1.02 0 0 Z " fill="#000000" transform="translate(661,86)"/>
<path d="M0 0 C0.99 0 1.98 0 3 0 C3 0.66 3 1.32 3 2 C2.01 2 1.02 2 0 2 C0 1.34 0 0.68 0 0 Z " fill="#FF0000" transform="translate(280,46)"/>
<path d="M0 0 C0.99 0 1.98 0 3 0 C3 0.66 3 1.32 3 2 C2.01 2 1.02 2 0 2 C0 1.34 0 0.68 0 0 Z " fill="#000000" transform="translate(616,40)"/>
<path d="M0 0 C0.66 0 1.32 0 2 0 C2 0.99 2 1.98 2 3 C1.34 3 0.68 3 0 3 C0 2.01 0 1.02 0 0 Z " fill="#000000" transform="translate(747,27)"/>
<path d="M0 0 C0.99 0 1.98 0 3 0 C3 0.66 3 1.32 3 2 C2.01 2 1.02 2 0 2 C0 1.34 0 0.68 0 0 Z " fill="#FF0000" transform="translate(183,5)"/>
<path d="M0 0 C0.33 0.99 0.66 1.98 1 3 C0.34 3 -0.32 3 -1 3 C-0.67 2.01 -0.34 1.02 0 0 Z " fill="#000000" transform="translate(742,154)"/>
<path d="M0 0 C0.33 0.99 0.66 1.98 1 3 C0.34 3 -0.32 3 -1 3 C-0.67 2.01 -0.34 1.02 0 0 Z " fill="#FF0000" transform="translate(298,45)"/>
<path d="M0 0 C0.66 0 1.32 0 2 0 C2 0.66 2 1.32 2 2 C1.34 2 0.68 2 0 2 C0 1.34 0 0.68 0 0 Z " fill="#000000" transform="translate(739,126)"/>
<path d="M0 0 C0.66 0 1.32 0 2 0 C2 0.66 2 1.32 2 2 C1.34 2 0.68 2 0 2 C0 1.34 0 0.68 0 0 Z " fill="#FF0000" transform="translate(250,95)"/>
<path d="M0 0 C0.99 0.495 0.99 0.495 2 1 C1.34 1.66 0.68 2.32 0 3 C0 2.01 0 1.02 0 0 Z " fill="#000000" transform="translate(708,89)"/>
<path d="M0 0 C4 1 4 1 4 1 Z " fill="#FF0000" transform="translate(83,21)"/>
<path d="M0 0 C0.66 0 1.32 0 2 0 C2 0.66 2 1.32 2 2 C1.34 2 0.68 2 0 2 C0 1.34 0 0.68 0 0 Z " fill="#000000" transform="translate(541,9)"/>
<path d="" fill="#FF0000" transform="translate(0,0)"/>
<path d="M0 0 C0.33 0.66 0.66 1.32 1 2 C0.34 1.67 -0.32 1.34 -1 1 C-0.67 0.67 -0.34 0.34 0 0 Z " fill="#000000" transform="translate(587,72)"/>
<path d="" fill="#FF0000" transform="translate(0,0)"/>
<path d="" fill="#000000" transform="translate(0,0)"/>
<path d="M0 0 C2 1 2 1 2 1 Z " fill="#FF0000" transform="translate(115,20)"/>
<path d="" fill="#FF0000" transform="translate(0,0)"/>
<path d="" fill="#FF0000" transform="translate(0,0)"/>
<path d="" fill="#FF0000" transform="translate(0,0)"/>
</svg>
